<svg width="107" height="24" viewBox="0 0 107 24" fill="none" xmlns="http://www.w3.org/2000/svg">
<path d="M5.856 18V3.624H0.264V1.08H14.544V3.624H8.952V18H5.856ZM14.5924 18V8.976C14.5924 8.464 14.5764 7.944 14.5444 7.416C14.5284 6.888 14.4884 6.376 14.4244 5.88H17.3284L17.6644 9.192H17.1844C17.3444 8.392 17.6084 7.728 17.9764 7.2C18.3604 6.672 18.8244 6.28 19.3684 6.024C19.9124 5.768 20.5044 5.64 21.1444 5.64C21.4324 5.64 21.6644 5.656 21.8404 5.688C22.0164 5.704 22.1924 5.744 22.3684 5.808L22.3444 8.448C22.0404 8.32 21.7764 8.24 21.5524 8.208C21.3444 8.176 21.0804 8.16 20.7604 8.16C20.0724 8.16 19.4884 8.304 19.0084 8.592C18.5444 8.88 18.1924 9.28 17.9524 9.792C17.7284 10.304 17.6164 10.888 17.6164 11.544V18H14.5924ZM28.6011 18.24C27.5451 18.24 26.6171 17.992 25.8171 17.496C25.0171 16.984 24.3931 16.256 23.9451 15.312C23.4971 14.368 23.2731 13.24 23.2731 11.928C23.2731 10.616 23.4971 9.496 23.9451 8.568C24.3931 7.624 25.0171 6.904 25.8171 6.408C26.6171 5.896 27.5451 5.64 28.6011 5.64C29.6251 5.64 30.5211 5.896 31.2891 6.408C32.0731 6.904 32.5931 7.576 32.8491 8.424H32.5851L32.8491 5.88H35.7291C35.6811 6.376 35.6331 6.88 35.5851 7.392C35.5531 7.904 35.5371 8.408 35.5371 8.904V18H32.5611L32.5371 15.504H32.8251C32.5691 16.336 32.0491 17 31.2651 17.496C30.4811 17.992 29.5931 18.24 28.6011 18.24ZM29.4411 15.936C30.3851 15.936 31.1451 15.608 31.7211 14.952C32.2971 14.28 32.5851 13.272 32.5851 11.928C32.5851 10.584 32.2971 9.584 31.7211 8.928C31.1451 8.272 30.3851 7.944 29.4411 7.944C28.4971 7.944 27.7371 8.272 27.1611 8.928C26.5851 9.584 26.2971 10.584 26.2971 11.928C26.2971 13.272 26.5771 14.28 27.1371 14.952C27.7131 15.608 28.4811 15.936 29.4411 15.936ZM39.6199 18V8.136H37.2919V5.88H40.4599L39.6199 6.648V4.8C39.6199 3.296 40.0039 2.16 40.7719 1.392C41.5559 0.624 42.6999 0.24 44.2039 0.24C44.5559 0.24 44.9239 0.263999 45.3079 0.311999C45.7079 0.359999 46.0519 0.447999 46.3399 0.576V2.928C46.1319 2.848 45.8839 2.784 45.5959 2.736C45.3079 2.688 45.0279 2.664 44.7559 2.664C44.3399 2.664 43.9639 2.744 43.6279 2.904C43.3079 3.064 43.0519 3.312 42.8599 3.648C42.6839 3.968 42.5959 4.4 42.5959 4.944V6.408L42.1639 5.88H45.7879V8.136H42.6199V18H39.6199ZM52.2026 18.24C51.1466 18.24 50.2186 17.992 49.4186 17.496C48.6186 16.984 47.9946 16.256 47.5466 15.312C47.0986 14.368 46.8746 13.24 46.8746 11.928C46.8746 10.616 47.0986 9.496 47.5466 8.568C47.9946 7.624 48.6186 6.904 49.4186 6.408C50.2186 5.896 51.1466 5.64 52.2026 5.64C53.2266 5.64 54.1226 5.896 54.8906 6.408C55.6746 6.904 56.1946 7.576 56.4506 8.424H56.1866L56.4506 5.88H59.3306C59.2826 6.376 59.2346 6.88 59.1866 7.392C59.1546 7.904 59.1386 8.408 59.1386 8.904V18H56.1626L56.1386 15.504H56.4266C56.1706 16.336 55.6506 17 54.8666 17.496C54.0826 17.992 53.1946 18.24 52.2026 18.24ZM53.0426 15.936C53.9866 15.936 54.7466 15.608 55.3226 14.952C55.8986 14.28 56.1866 13.272 56.1866 11.928C56.1866 10.584 55.8986 9.584 55.3226 8.928C54.7466 8.272 53.9866 7.944 53.0426 7.944C52.0986 7.944 51.3386 8.272 50.7626 8.928C50.1866 9.584 49.8986 10.584 49.8986 11.928C49.8986 13.272 50.1786 14.28 50.7386 14.952C51.3146 15.608 52.0826 15.936 53.0426 15.936ZM62.4054 18V0.335999H65.4054V18H62.4054ZM74.2793 23.376C73.1593 23.376 72.1433 23.256 71.2313 23.016C70.3353 22.776 69.5353 22.408 68.8313 21.912L69.4793 19.752C69.9433 20.056 70.4233 20.304 70.9193 20.496C71.4153 20.688 71.9273 20.832 72.4553 20.928C72.9833 21.024 73.5193 21.072 74.0633 21.072C75.1833 21.072 76.0153 20.792 76.5593 20.232C77.1193 19.688 77.3993 18.904 77.3993 17.88V14.976H77.6393C77.3833 15.808 76.8633 16.472 76.0793 16.968C75.3113 17.464 74.4233 17.712 73.4153 17.712C72.3273 17.712 71.3753 17.472 70.5592 16.992C69.7593 16.496 69.1353 15.792 68.6873 14.88C68.2393 13.968 68.0153 12.896 68.0153 11.664C68.0153 10.432 68.2393 9.368 68.6873 8.472C69.1353 7.56 69.7593 6.864 70.5592 6.384C71.3753 5.888 72.3273 5.64 73.4153 5.64C74.4393 5.64 75.3273 5.888 76.0793 6.384C76.8473 6.864 77.3593 7.52 77.6153 8.352L77.3993 8.208L77.6393 5.88H80.5433C80.4793 6.376 80.4313 6.88 80.3993 7.392C80.3673 7.904 80.3513 8.408 80.3513 8.904V17.52C80.3513 19.424 79.8313 20.872 78.7913 21.864C77.7673 22.872 76.2633 23.376 74.2793 23.376ZM74.2313 15.408C75.1913 15.408 75.9513 15.088 76.5113 14.448C77.0873 13.792 77.3753 12.864 77.3753 11.664C77.3753 10.464 77.0873 9.544 76.5113 8.904C75.9513 8.264 75.1913 7.944 74.2313 7.944C73.2553 7.944 72.4793 8.264 71.9033 8.904C71.3273 9.544 71.0393 10.464 71.0393 11.664C71.0393 12.864 71.3273 13.792 71.9033 14.448C72.4793 15.088 73.2553 15.408 74.2313 15.408ZM88.2729 18.24C87.2169 18.24 86.2889 17.992 85.4889 17.496C84.6889 16.984 84.0649 16.256 83.6169 15.312C83.1689 14.368 82.9449 13.24 82.9449 11.928C82.9449 10.616 83.1689 9.496 83.6169 8.568C84.0649 7.624 84.6889 6.904 85.4889 6.408C86.2889 5.896 87.2169 5.64 88.2729 5.64C89.2969 5.64 90.1929 5.896 90.9609 6.408C91.7449 6.904 92.2649 7.576 92.5209 8.424H92.2569L92.5209 5.88H95.4009C95.3529 6.376 95.3049 6.88 95.2569 7.392C95.2249 7.904 95.2089 8.408 95.2089 8.904V18H92.2329L92.2089 15.504H92.4969C92.2409 16.336 91.7209 17 90.9369 17.496C90.1529 17.992 89.2649 18.24 88.2729 18.24ZM89.1129 15.936C90.0569 15.936 90.8169 15.608 91.3929 14.952C91.9689 14.28 92.2569 13.272 92.2569 11.928C92.2569 10.584 91.9689 9.584 91.3929 8.928C90.8169 8.272 90.0569 7.944 89.1129 7.944C88.1689 7.944 87.4089 8.272 86.8329 8.928C86.2569 9.584 85.9689 10.584 85.9689 11.928C85.9689 13.272 86.2489 14.28 86.8089 14.952C87.3849 15.608 88.1529 15.936 89.1129 15.936ZM98.4518 18V8.976C98.4518 8.464 98.4358 7.944 98.4038 7.416C98.3878 6.888 98.3478 6.376 98.2838 5.88H101.188L101.524 9.192H101.044C101.204 8.392 101.468 7.728 101.836 7.2C102.22 6.672 102.684 6.28 103.228 6.024C103.772 5.768 104.364 5.64 105.004 5.64C105.292 5.64 105.524 5.656 105.7 5.688C105.876 5.704 106.052 5.744 106.228 5.808L106.204 8.448C105.9 8.32 105.636 8.24 105.412 8.208C105.204 8.176 104.94 8.16 104.62 8.16C103.932 8.16 103.348 8.304 102.868 8.592C102.404 8.88 102.052 9.28 101.812 9.792C101.588 10.304 101.476 10.888 101.476 11.544V18H98.4518Z" fill="white"/>
</svg>
